<svg width="182" height="178" version="1.1" xmlns="http://www.w3.org/2000/svg" desc="Created with https://tools.webdevpuneet.com/image-to-svg-converter/"><path fill="rgb(221,221,221)" stroke="rgb(221,221,221)" stroke-width="1" opacity="1" d="M 181.5 0 L 180 2.5 L 180 178 L 4 178 L 4 2 L 179.5 2 L 181.5 0 Z M 70 85 L 70 112 L 72 113 L 91 113 L 93 111 L 93 94 L 92 93 Q 93 90 90 91 L 88 87 L 86 87 L 86 85 L 70 85 Z "></path><path fill="rgb(221,221,221)" stroke="rgb(221,221,221)" stroke-width="1" opacity="1" d="M 73.5 88 L 75.5 88 L 81 88 L 81 96 L 89 96 L 89 109 L 73 109 L 73.5 88 Z M 77 91 L 75 93 Q 74 98 78 96 Q 79 92 77 91 Z M 77 102 L 77 104 Q 74 103 75 106 L 77 107 Q 78 103 80 106 L 83 105 Q 85 104 84 107 L 87 106 Q 88 103 85 104 L 85 102 L 77 102 Z "></path><path fill="rgb(221,221,221)" stroke="rgb(221,221,221)" stroke-width="1" opacity="1" d="M 84.5 88 L 88.5 93 Q 81.1 95.1 84.5 88 Z "></path><path fill="rgb(236,236,236)" stroke="rgb(236,236,236)" stroke-width="1" opacity="1" d="M 181.5 1 L 182 178 L 180 177.5 L 180 2.5 L 181.5 1 Z "></path><path fill="rgb(236,236,236)" stroke="rgb(236,236,236)" stroke-width="1" opacity="1" d="M 79.5 105 L 82 105.5 L 79.5 106 L 79.5 105 Z "></path><path fill="rgb(236,236,236)" stroke="rgb(236,236,236)" stroke-width="1" opacity="1" d="M 71.5 112 L 91 112.5 L 71.5 113 L 71.5 112 Z "></path><path fill="rgb(248,248,248)" stroke="rgb(248,248,248)" stroke-width="1" opacity="1" d="M 0.5 0 L 1 177.5 L 0 177.5 L 0.5 0 Z "></path><path fill="rgb(151,151,151)" stroke="rgb(151,151,151)" stroke-width="1" opacity="1" d="M 1 0 L 181 0.5 L 179.5 2 L 4 2 L 4 177.5 L 1 178 L 1 0 Z "></path><path fill="rgb(151,151,151)" stroke="rgb(151,151,151)" stroke-width="1" opacity="1" d="M 70 85 L 85.5 85 L 86 87 L 87.5 87 L 90 91 Q 92.7 89.9 92 92.5 L 93 93.5 L 93 110.5 L 91.5 112 L 70 112 L 70 85 Z M 73 88 L 73 109 L 89 109 L 89 96 L 81 96 L 81 88 L 73 88 Z M 85 88 Q 81 95 89 93 L 85 88 Z "></path><path fill="rgb(151,151,151)" stroke="rgb(151,151,151)" stroke-width="1" opacity="1" d="M 76.5 91 Q 79 92.2 78 96 Q 73.5 97.8 75 92.5 L 76.5 91 Z "></path><path fill="rgb(151,151,151)" stroke="rgb(151,151,151)" stroke-width="1" opacity="1" d="M 77 102 L 85 102 L 85 104 Q 87.7 102.9 87 105.5 L 84 107 Q 85.4 103 78.5 105 Q 76.8 108.8 75 105.5 Q 74.3 102.9 77 104 L 77 102 Z "></path></svg>